<svg width="17" height="17" viewBox="0 0 17 17" fill="none" xmlns="http://www.w3.org/2000/svg">
<g clip-path="url(#clip0_152_80)">
<path d="M16.6145 2.55672L14.4436 0.385845C13.9298 -0.127919 13.0967 -0.127919 12.5829 0.385845L8.4999 4.46885L4.41666 0.385811C3.90289 -0.127953 3.06979 -0.127953 2.55603 0.385811L0.385323 2.55672C-0.128441 3.07048 -0.128441 3.90362 0.385323 4.41738L4.46857 8.50042L0.385323 12.5834C-0.128441 13.0972 -0.128441 13.9303 0.385323 14.4441L2.5562 16.6148C3.06996 17.1285 3.90309 17.1285 4.41686 16.6148L8.4999 12.5318L12.5832 16.6148C13.0969 17.1285 13.9301 17.1285 14.4438 16.6148L16.6147 14.4441C17.1285 13.9303 17.1285 13.0972 16.6147 12.5834L12.5313 8.50042L16.6145 4.41738C17.1282 3.90338 17.1282 3.07048 16.6145 2.55672Z" fill="white"/>
</g>
<defs>
<clipPath id="clip0_152_80">
<rect width="17" height="17" fill="white"/>
</clipPath>
</defs>
</svg>
