<?xml version="1.0" encoding="utf-8"?>
<!-- Svg Vector Icons : http://www.onlinewebfonts.com/icon -->
<!DOCTYPE svg PUBLIC "-//W3C//DTD SVG 1.1//EN" "http://www.w3.org/Graphics/SVG/1.1/DTD/svg11.dtd">
<svg version="1.1" xmlns="http://www.w3.org/2000/svg" xmlns:xlink="http://www.w3.org/1999/xlink" x="0px" y="0px" viewBox="0 0 256 256" enable-background="new 0 0 256 256" xml:space="preserve">
<metadata> Svg Vector Icons : http://www.onlinewebfonts.com/icon </metadata>
<g><g><path fill="#000000" d="M127.8,129.9c22.4,0,40.5-18.2,40.5-40.5c0-22.4-18.2-40.5-40.5-40.5c-22.4,0-40.5,18.2-40.5,40.5C87.2,111.7,105.4,129.9,127.8,129.9z M164,136.4l-3.6,0c-1,0-2.4,0.4-3.3,0.8c0,0-2.9,1.6-5.3,2.7c-7.1,3.1-15.2,4.8-23.8,4.8c-8.5,0-16.6-1.7-23.7-4.8c-2.4-1-5.3-2.7-5.3-2.7c-0.8-0.5-2.3-0.8-3.3-0.8l-3.5,0c-13,1.7-26.7,13.2-30.6,25.7c0,0-4.2,8.4-4.7,24.9c0,1.3,0,0,0,0c0,2.1,1.4,4.7,3.3,5.7c0,0,22.8,14.5,67.8,14.5c45,0,67.8-14.5,67.8-14.5c1.9-1,3.4-3.6,3.3-5.7c0,0,0,1.2,0,0c-0.6-16.4-4.6-24.5-4.6-24.5C190.8,149.9,177,138.3,164,136.4z"/><path fill="#000000" d="M48.2,160.6c-23.7-1.5-34.9-8.8-34.9-8.8c-1.9-1-3.4-3.5-3.4-4.4c0,0,0,0.8,0,0c0.4-10.9,3.1-16.3,3.1-16.3c2.4-8.3,11.6-16,20.3-17.3l1.8,0c1,0,2.4,0.4,3.3,0.8c0,0,1.4,0.8,3,1.5c4.7,2,10.1,3.2,15.8,3.2c5.7,0,11.1-1.1,15.7-3.2c1.6-0.7,3-1.5,3-1.5c0.8-0.5,2.3-0.8,3.3-0.8h1.3l0,0c2.1,4,4.7,7.7,7.7,11l-3.3,0c-15.5,2.5-32,17.8-36.3,34.5C48.8,159.4,48.6,159.8,48.2,160.6z M207.9,160.9c23.6-1.6,34.7-8.8,34.7-8.8c1.9-1,3.4-3.5,3.4-4.4c0,0,0,0.8,0,0c-0.4-10.9-3.1-16.3-3.1-16.3c-2.4-8.3-11.6-16-20.3-17.3l-1.8,0c-1,0-2.4,0.4-3.3,0.8c0,0-1.4,0.8-3,1.5c-4.7,2-10.1,3.2-15.8,3.2c-5.7,0-11.1-1.1-15.7-3.2c-1.6-0.7-3-1.5-3-1.5c-0.8-0.5-2.3-0.8-3.3-0.8h-1.3l0,0c-2,3.9-4.6,7.5-7.4,10.8l2.7,0c15.5,2.3,31.8,17.5,36.4,34C207.1,158.8,207.4,159.5,207.9,160.9z M176.8,67c4.9-6.8,12.9-11.2,22-11.2c15,0,27.1,12.1,27.1,27c0,14.9-12.1,27-27.1,27c-7.3,0-14-2.9-18.8-7.6c1-4.2,1.6-8.5,1.6-13c0-0.1,0-0.3,0-0.4C181.5,81.1,179.8,73.7,176.8,67L176.8,67z M79.3,66.9c-4.9-6.8-13-11.3-22-11.3c-15,0-27.1,12.1-27.1,27c0,14.9,12.1,27,27.1,27c7.3,0,14-2.9,18.8-7.6c-1-4.2-1.6-8.5-1.6-13C74.5,81.1,76.3,73.6,79.3,66.9L79.3,66.9z"/></g></g>
</svg>