<svg width="20" height="20" viewBox="0 0 20 20" fill="none" xmlns="http://www.w3.org/2000/svg">
<g clip-path="url(#clip0_346_134)">
<path d="M7.70851 16.0416V15.625H4.58351C4.08644 15.6243 3.60991 15.4266 3.25842 15.0751C2.90693 14.7236 2.70918 14.2471 2.70851 13.75V13.4316C2.70688 13.0352 2.81653 12.6463 3.02498 12.3091C3.23343 11.9719 3.53233 11.6999 3.88768 11.5241C4.04664 11.4447 4.18257 11.3259 4.28251 11.179C4.38245 11.0321 4.44305 10.862 4.45851 10.685L4.83018 6.59332C4.90032 5.82126 5.14256 5.07473 5.53909 4.40858C5.93562 3.74243 6.47637 3.17359 7.12161 2.74386C7.76684 2.31413 8.50016 2.03443 9.26768 1.92532C10.0352 1.8162 10.8174 1.88044 11.5568 2.11332C11.3283 2.46865 11.1502 2.854 11.0277 3.25831C10.6924 3.16946 10.347 3.12464 10.0002 3.12498C9.01595 3.12036 8.06606 3.48648 7.33953 4.15047C6.61301 4.81446 6.1631 5.72765 6.07935 6.70832L5.70851 10.7983C5.67403 11.1877 5.54014 11.5617 5.31966 11.8844C5.09918 12.2072 4.7995 12.4679 4.44935 12.6416C4.30172 12.7143 4.17746 12.827 4.09069 12.9668C4.00392 13.1066 3.95812 13.2679 3.95851 13.4325V13.7508C3.95895 13.9164 4.02497 14.075 4.14211 14.192C4.25925 14.309 4.41797 14.3748 4.58351 14.375H15.4168C15.5825 14.3748 15.7414 14.3088 15.8585 14.1917C15.9757 14.0745 16.0416 13.9157 16.0418 13.75V13.4316C16.0425 13.2675 15.9971 13.1064 15.9108 12.9667C15.8244 12.8271 15.7007 12.7145 15.5535 12.6416C15.2029 12.4683 14.9027 12.2077 14.6818 11.8849C14.4608 11.5621 14.3266 11.1879 14.2918 10.7983L14.1252 8.98165C14.5383 9.10274 14.9664 9.16474 15.3968 9.16582L15.5352 10.6841C15.552 10.8607 15.6133 11.03 15.7132 11.1765C15.8132 11.3229 15.9486 11.4417 16.1068 11.5216C16.4625 11.6975 16.7617 11.9695 16.9706 12.3068C17.1794 12.6441 17.2896 13.0332 17.2885 13.43V13.7483C17.2881 14.2455 17.0904 14.7221 16.7388 15.0737C16.3873 15.4252 15.9107 15.6229 15.4135 15.6233H12.2918V16.0416C12.2918 16.6494 12.0504 17.2323 11.6206 17.6621C11.1909 18.0919 10.608 18.3333 10.0002 18.3333C9.39239 18.3333 8.8095 18.0919 8.37973 17.6621C7.94996 17.2323 7.70851 16.6494 7.70851 16.0416ZM8.95851 16.0416C8.95851 16.3179 9.06826 16.5829 9.26361 16.7782C9.45896 16.9736 9.72391 17.0833 10.0002 17.0833C10.2764 17.0833 10.5414 16.9736 10.7367 16.7782C10.9321 16.5829 11.0418 16.3179 11.0418 16.0416V15.625H8.95851V16.0416ZM15.2477 7.49498C14.7936 7.46879 14.352 7.33635 13.9585 7.10832L13.9218 6.70832C13.8328 5.67686 13.3391 4.72259 12.5485 4.05415C12.628 3.62763 12.8017 3.22422 13.0568 2.87331C13.6529 3.30761 14.1495 3.86409 14.5133 4.50559C14.8772 5.14709 15.1 5.85885 15.1668 6.59332L15.2502 7.49415L15.2477 7.49498Z" fill="white"/>
<path d="M15.4167 7.49996C14.8398 7.49996 14.2759 7.3289 13.7963 7.00841C13.3166 6.68793 12.9428 6.2324 12.722 5.69945C12.5013 5.1665 12.4435 4.58006 12.556 4.01428C12.6686 3.4485 12.9464 2.9288 13.3543 2.5209C13.7622 2.113 14.2819 1.83521 14.8477 1.72267C15.4134 1.61013 15.9999 1.66789 16.5328 1.88865C17.0658 2.1094 17.5213 2.48324 17.8418 2.96288C18.1623 3.44252 18.3333 4.00643 18.3333 4.58329C18.3333 5.35684 18.026 6.09871 17.4791 6.64569C16.9321 7.19267 16.1902 7.49996 15.4167 7.49996Z" fill="#FF6359"/>
</g>
<defs>
<clipPath id="clip0_346_134">
<rect width="20" height="20" fill="white"/>
</clipPath>
</defs>
</svg>
