<svg width="19" height="20" viewBox="0 0 19 20" fill="none" xmlns="http://www.w3.org/2000/svg">
<path d="M6.51579 17.216V16.7098H2.44343C1.79567 16.709 1.17468 16.4688 0.716634 16.0418C0.258592 15.6148 0.000885407 15.0358 2.34389e-05 14.432V14.0453C-0.0021051 13.5636 0.140779 13.0911 0.412427 12.6815C0.684075 12.2718 1.07358 11.9415 1.53666 11.7279C1.74374 11.6314 1.92083 11.487 2.05105 11.3085C2.18127 11.1301 2.26028 10.9235 2.28054 10.7085L2.76488 5.73776C2.91602 4.17036 3.69075 2.7124 4.93672 1.6506C6.18269 0.588799 7.80972 0 9.49784 0C11.186 0 12.813 0.588799 14.0589 1.6506C15.3049 2.7124 16.0797 4.17036 16.2308 5.73776L16.7151 10.7085C16.7371 10.9229 16.8169 11.1287 16.9471 11.3066C17.0774 11.4845 17.2539 11.6288 17.4601 11.7259C17.9235 11.9396 18.3135 12.27 18.5857 12.6798C18.8579 13.0896 19.0014 13.5623 19 14.0442V14.431C18.9994 15.0349 18.7418 15.614 18.2837 16.041C17.8256 16.4681 17.2044 16.7083 16.5566 16.7088H12.4886V17.216C12.4886 17.9544 12.1739 18.6625 11.6139 19.1846C11.0538 19.7067 10.2942 20 9.50218 20C8.71014 20 7.95054 19.7067 7.39048 19.1846C6.83042 18.6625 6.51579 17.9544 6.51579 17.216ZM8.14473 17.216C8.14473 17.5516 8.28774 17.8735 8.54232 18.1108C8.79689 18.3481 9.14216 18.4814 9.50218 18.4814C9.8622 18.4814 10.2075 18.3481 10.462 18.1108C10.7166 17.8735 10.8596 17.5516 10.8596 17.216V16.7098H8.14473V17.216ZM4.39273 5.87747L3.90948 10.8462C3.86465 11.3192 3.6902 11.7736 3.40287 12.1657C3.11554 12.5578 2.72497 12.8746 2.2686 13.0855C2.07622 13.1738 1.91429 13.3107 1.80121 13.4805C1.68814 13.6504 1.62846 13.8464 1.62896 14.0463V14.433C1.62954 14.6341 1.71557 14.8268 1.86822 14.9689C2.02087 15.111 2.2277 15.191 2.44343 15.1913H16.5609C16.7768 15.191 16.9838 15.1109 17.1365 14.9686C17.2892 14.8262 17.3751 14.6333 17.3754 14.432V14.0453C17.3761 13.8458 17.3169 13.6502 17.2044 13.4806C17.0919 13.3109 16.9307 13.1741 16.739 13.0855C16.2821 12.8749 15.8909 12.5583 15.603 12.1662C15.3151 11.774 15.1401 11.3195 15.0949 10.8462L14.6127 5.87747C14.4965 4.6889 13.9079 3.58376 12.9624 2.77904C12.017 1.97432 10.783 1.52816 9.50272 1.52816C8.22247 1.52816 6.98847 1.97432 6.043 2.77904C5.09754 3.58376 4.50893 4.6889 4.39273 5.87747Z" fill="white"/>
</svg>
