<?xml version="1.0" standalone="no"?>
<!DOCTYPE svg PUBLIC "-//W3C//DTD SVG 20010904//EN"
 "http://www.w3.org/TR/2001/REC-SVG-20010904/DTD/svg10.dtd">
<svg version="1.0" xmlns="http://www.w3.org/2000/svg"
 width="512.000000pt" height="512.000000pt" viewBox="0 0 512.000000 512.000000"
 preserveAspectRatio="xMidYMid meet">

<g transform="translate(0.000000,512.000000) scale(0.100000,-0.100000)"
fill="#000000" stroke="none">
<path d="M655 4525 c-38 -7 -95 -22 -126 -33 -243 -86 -432 -293 -506 -553
-17 -60 -18 -136 -18 -1379 0 -1458 -4 -1353 65 -1506 101 -224 280 -374 540
-452 50 -15 193 -17 1615 -20 1745 -3 1638 -7 1829 69 124 49 201 92 303 167
180 135 323 332 382 527 12 39 101 486 198 995 170 893 177 930 177 1055 1
118 -2 138 -28 219 -81 246 -287 422 -557 473 l-91 18 -36 55 c-120 188 -305
317 -514 361 -89 18 -153 19 -1628 18 -1229 -1 -1549 -3 -1605 -14z m3226
-421 c78 -37 136 -87 177 -152 65 -102 62 -30 62 -1392 0 -1362 3 -1290 -62
-1392 -41 -65 -99 -115 -177 -152 l-66 -31 -1520 -3 c-1021 -1 -1536 1 -1570
8 -128 26 -232 109 -288 228 l-32 67 0 1275 0 1275 32 67 c36 76 108 155 172
187 101 52 33 50 1676 48 l1530 -2 66 -31z"/>
<path d="M1010 3709 c-61 -12 -118 -54 -155 -114 l-30 -48 0 -452 0 -452 30
-48 c17 -27 50 -63 74 -80 l43 -30 455 -3 c446 -3 456 -2 499 19 54 25 107 86
122 138 15 49 17 859 2 912 -14 50 -80 123 -132 145 -39 17 -77 19 -453 21
-225 1 -430 -3 -455 -8z"/>
<path d="M2414 3691 c-23 -10 -52 -34 -65 -52 -21 -30 -24 -45 -24 -131 0
-107 10 -132 75 -175 l33 -23 549 0 c608 0 593 -1 644 65 24 32 28 48 32 118
5 106 -20 160 -88 195 l-44 22 -536 0 c-500 0 -538 -2 -576 -19z"/>
<path d="M2414 2851 c-66 -30 -88 -71 -93 -168 -4 -103 18 -158 78 -191 39
-22 42 -22 593 -22 l555 0 33 23 c58 39 73 68 78 156 6 98 -18 157 -76 193
l-37 23 -545 2 c-515 3 -547 2 -586 -16z"/>
<path d="M890 1868 c-56 -38 -75 -81 -75 -173 0 -92 19 -135 75 -173 l33 -22
1321 2 c1303 3 1321 3 1348 23 50 38 63 72 63 170 0 98 -13 132 -63 170 -27
20 -45 20 -1348 23 l-1321 2 -33 -22z"/>
</g>
</svg>
