<svg width="34" height="34" viewBox="0 0 34 34" fill="none" xmlns="http://www.w3.org/2000/svg">
<path d="M34 16.7131C34 25.9435 26.3888 33.4262 17 33.4262C7.61116 33.4262 0 25.9435 0 16.7131C0 7.4827 7.61116 0 17 0C26.3888 0 34 7.4827 34 16.7131Z" fill="white"/>
<path d="M24.6 25.7131L18.3 19.4131C17.8 19.8131 17.225 20.1298 16.575 20.3631C15.925 20.5964 15.2333 20.7131 14.5 20.7131C12.6833 20.7131 11.1458 20.0839 9.8875 18.8256C8.62917 17.5673 8 16.0298 8 14.2131C8 12.3965 8.62917 10.859 9.8875 9.60063C11.1458 8.3423 12.6833 7.71313 14.5 7.71313C16.3167 7.71313 17.8542 8.3423 19.1125 9.60063C20.3708 10.859 21 12.3965 21 14.2131C21 14.9464 20.8833 15.6381 20.65 16.2881C20.4167 16.9381 20.1 17.5131 19.7 18.0131L26 24.3131L24.6 25.7131ZM14.5 18.7131C15.75 18.7131 16.8125 18.2756 17.6875 17.4006C18.5625 16.5256 19 15.4631 19 14.2131C19 12.9631 18.5625 11.9006 17.6875 11.0256C16.8125 10.1506 15.75 9.71313 14.5 9.71313C13.25 9.71313 12.1875 10.1506 11.3125 11.0256C10.4375 11.9006 10 12.9631 10 14.2131C10 15.4631 10.4375 16.5256 11.3125 17.4006C12.1875 18.2756 13.25 18.7131 14.5 18.7131Z" fill="#400A72"/>
</svg>
