<svg width="40" height="40" viewBox="0 0 40 40" fill="none" xmlns="http://www.w3.org/2000/svg">
<g clip-path="url(#clip0_81_34)">
<path fill-rule="evenodd" clip-rule="evenodd" d="M9.96522 0C15.4688 0 19.9304 4.46158 19.9304 9.96522V0H29.8957C35.3993 0 39.8609 4.46158 39.8609 9.96522C39.8609 15.4688 35.3993 19.9304 29.8957 19.9304C35.3993 19.9304 39.8609 24.3921 39.8609 29.8957C39.8609 32.6284 38.7608 35.1043 36.9794 36.9046L36.9422 36.9422L36.9091 36.9751C35.1084 38.759 32.6307 39.8609 29.8957 39.8609C27.1792 39.8609 24.7166 38.774 22.919 37.0113C22.8957 36.9884 22.8724 36.9653 22.8492 36.9422C22.8273 36.9203 22.8056 36.8984 22.784 36.8764C21.019 35.0785 19.9304 32.6142 19.9304 29.8957C19.9304 35.3993 15.4688 39.8609 9.96522 39.8609C4.46158 39.8609 0 35.3993 0 29.8957V19.9304H9.96522C4.46158 19.9304 0 15.4688 0 9.96522C0 4.46158 4.46158 0 9.96522 0ZM17.9374 9.96522C17.9374 14.3682 14.3682 17.9374 9.96522 17.9374V1.99304C14.3682 1.99304 17.9374 5.56231 17.9374 9.96522ZM37.8678 29.8957C37.8678 25.4927 34.2986 21.9235 29.8957 21.9235C25.4927 21.9235 21.9235 25.4927 21.9235 29.8957H37.8678ZM1.99304 21.9235V29.8957C1.99304 34.2986 5.56231 37.8678 9.96522 37.8678C14.3682 37.8678 17.9374 34.2986 17.9374 29.8957V21.9235H1.99304ZM21.9235 17.9374V1.99304H29.8957C34.2986 1.99304 37.8678 5.56231 37.8678 9.96522C37.8678 14.3682 34.2986 17.9374 29.8957 17.9374H21.9235Z" fill="#A57FF6"/>
</g>
<defs>
<clipPath id="clip0_81_34">
<rect width="39.8609" height="39.8609" fill="white"/>
</clipPath>
</defs>
</svg>
